# AST/ASF file generated using VICON BodyLanguage
# -----------------------------------------------
:version 1.10
:name VICON
:units
  mass 1.0
  length 0.45
  angle deg
:documentation
   .ast/.asf automatically generated from VICON data using
   VICON BodyBuilder and BodyLanguage model FoxedUp or BRILLIANT.MOD
:root
   order TX TY TZ RX RY RZ
   axis XYZ
   position 0 0 0  
   orientation 0 0 0 
:bonedata
  begin
     id 1 
     name lhipjoint
     direction 0.662698 -0.695252 0.27831 
     length 2.53073 
     axis 0 0 0  XYZ
  end
  begin
     id 2 
     name lfemur
     direction 0.34202 -0.939693 0  
     length 7.16147  
     axis 0 0 20  XYZ
    dof rx ry rz
    limits (-160.0 20.0)
           (-70.0 70.0)
           (-60.0 70.0)
  end
  begin
     id 3 
     name ltibia
     direction 0.34202 -0.939693 0   
     length 7.63967   
     axis 0 0 20   XYZ
    dof rx
    limits (-10.0 170.0)
  end
  begin
     id 4 
     name lfoot
     direction 0.0938457 -0.257721 0.961651   
     length 1.89793   
     axis -90 7.62852e-016 20   XYZ
    dof rx rz
    limits (-45.0 90.0)
           (-70.0 20.0)
  end
  begin
     id 5 
     name ltoes
     direction -0.00116841 -0.0030592 0.999995   
     length 0.955649   
     axis -90 7.62852e-016 20   XYZ
    dof rx
    limits (-90.0 20.0)
  end
  begin
     id 6 
     name rhipjoint
     direction -0.649445 -0.705948 0.282592   
     length 2.49238  
     axis 0 0 0  XYZ 
  end
  begin
     id 7 
     name rfemur
     direction -0.34202 -0.939693 0   
     length 6.90728   
     axis 0 0 -20   XYZ
    dof rx ry rz
    limits (-160.0 20.0)
           (-70.0 70.0)
           (-70.0 60.0)
  end
  begin
     id 8 
     name rtibia
     direction -0.34202 -0.939693 0   
     length 7.72868   
     axis 0 0 -20   XYZ
    dof rx
    limits (-10.0 170.0)
 end
 begin
     id 9 
     name rfoot
     direction -0.0920068 -0.252865 0.963117   
     length 1.97476  
     axis -90 -7.62852e-016 -20   XYZ
    dof rx rz
    limits (-45.0 90.0)
           (-20.0 70.0)
  end
  begin
     id 10 
     name rtoes
     direction 0.000391322 0.00230649 0.999997   
     length 0.992641   
     axis -90 -7.62852e-016 -20   XYZ
    dof rx
    limits (-90.0 20.0)
  end
  begin
     id 11 
     name lowerback
     direction -0.00875327 0.998321 -0.0572635   
     length 2.20024   
     axis 0 0 0   XYZ
    dof rx ry rz
    limits (-20.0 45.0)
           (-30.0 30.0)
           (-30.0 30.0)
  end
  begin
     id 12 
     name upperback
     direction 0.00753931 0.999972 -0.000360425   
     length 2.20538   
     axis 0 0 0   XYZ
    dof rx ry rz
    limits (-20.0 45.0)
           (-30.0 30.0)
           (-30.0 30.0)
  end
  begin
     id 13 
     name thorax
     direction 0.0117767 0.999601 0.0256663   
     length 2.21508   
     axis 0 0 0   XYZ
    dof rx ry rz
    limits (-20.0 45.0)
           (-30.0 30.0)
           (-30.0 30.0)
  end
  begin
     id 14 
     name lowerneck
     direction 0.060228 0.994909 0.0807986   
     length 1.7607   
     axis 0 0 0   XYZ
    dof rx ry rz
    limits (-20.0 45.0)
           (-30.0 30.0)
           (-30.0 30.0)
  end
  begin
     id 15 
     name upperneck
     direction -0.0563647 0.959594 -0.275685   
     length 1.75612   
     axis 0 0 0   XYZ
    dof rx ry rz
    limits (-20.0 45.0)
           (-30.0 30.0)
           (-30.0 30.0)
  end
  begin
     id 16
     name head
     direction -0.0161544 0.99458 -0.102714  
     length 1.79288  
     axis 0 0 0   XYZ
    dof rx ry rz
    limits (-20.0 45.0)
           (-30.0 30.0)
           (-30.0 30.0)
  end
  begin
     id 17 
     name lclavicle
     direction 0.93913 0.332189 -0.087669  
     length 3.52087  
     axis 0 0 0   XYZ
    dof ry rz
    limits (-20.0 10.0)
           (0.0 20.0)
  end
  begin
     id 18 
     name lhumerus
     direction 1 -4.48974e-011 -2.70836e-027   
     length 5.35289   
     axis -180 -30 -90   XYZ
    dof rx ry rz
    limits (-60.0 90.0)
           (-90.0 90.0)
           (-90.0 90.0)
  end
  begin
     id 19
     name lradius
     direction 1 -4.48961e-011 -9.76021e-027   
     length 3.27727   
     axis -180 -30 -90   XYZ
    dof rx
    limits (-10.0 170.0)
  end
  begin
     id 20
     name lwrist
     direction 1 -4.49103e-011 -2.23668e-026   
     length 1.63864   
     axis 1.44924e-014 90 90   XYZ
    dof ry
    limits (-180.0 0.0)
 end
  begin
     id 21 
     name lhand
     direction 1 3.0697e-005 0.000161777   
     length 0.54443   
     axis 2.85318e-014 90 90   XYZ
    dof rx rz
    limits (-90.0 90.0)
           (-45.0 45.0)
  end
  begin
     id 22 
     name lfingers
     direction 1 -4.49027e-011 -8.9447e-026   
     length 0.438912   
     axis 5.70628e-014 90 90   XYZ
    dof rx
    limits (0.0 90.0)
  end
  begin
     id 23
     name lthumb
     direction 0.707058 2.6516e-005 0.707156   
     length 0.630274   
     axis -90 45 -3.53137e-014   XYZ
    dof rx rz
    limits (-45.0 45.0)
           (-45.0 45.0)
  end
  begin
     id 24 
     name rclavicle
     direction -0.95274 0.284984 -0.105215   
     length 3.43401  
     axis 0 0 0   XYZ 
    dof ry rz
    limits (-10.0 20.0)
           (-20.0 0.0)
  end
  begin
     id 25 
     name rhumerus
     direction -0.999999 -0.000575019 -0.00106829  
     length 5.52077   
     axis -180 30 90   XYZ
    dof rx ry rz
    limits (-90.0 60.0)
           (-90.0 90.0)
           (-90.0 90.0)
  end
  begin
     id 26 
     name rradius
     direction -1 -4.4879e-011 -6.35415e-027   
     length 3.32364   
     axis -180 30 90   XYZ
    dof rx
    limits (-10.0 170.0)
  end
  begin
     id 27 
     name rwrist
     direction -1 -4.49048e-011 -9.98542e-027   
     length 1.66182   
     axis 6.32482e-015 -90 -90   XYZ
    dof ry
    limits (-180.0 0.0)
  end
  begin
     id 28
     name rhand
     direction -1 -4.48978e-011 -1.99771e-026   
     length 0.732235   
     axis 1.27479e-014 -90 -90   XYZ
    dof rx rz
    limits (-90.0 90.0)
           (-45.0 45.0)
  end
  begin
     id 29
     name rfingers
     direction -1 -4.49144e-011 -3.99245e-026   
     length 0.590347   
     axis 2.5496e-014 -90 -90   XYZ
    dof rx
    limits (0.0 90.0)
  end
  begin
     id 30
     name rthumb
     direction -0.707107 -6.35121e-011 0.707107   
     length 0.847624   
     axis -90 -45 -2.82974e-014   XYZ
    dof rx rz
    limits (-45.0 45.0)
           (-45.0 45.0)
  end
:hierarchy
  begin
    root lhipjoint rhipjoint lowerback
    lhipjoint lfemur
    lfemur ltibia
    ltibia lfoot
    lfoot ltoes
    rhipjoint rfemur
    rfemur rtibia
    rtibia rfoot
    rfoot rtoes
    lowerback upperback
    upperback thorax
    thorax lowerneck lclavicle rclavicle
    lowerneck upperneck
    upperneck head
    lclavicle lhumerus
    lhumerus lradius
    lradius lwrist
    lwrist lhand lthumb
    lhand lfingers
    rclavicle rhumerus
    rhumerus rradius
    rradius rwrist
    rwrist rhand rthumb
    rhand rfingers
  end

#!OML:ASF G:\Work\Work\Patient Classification 1\Elijah\terrain1\Elijah.ASF
:FULLY-SPECIFIED
:DEGREES
286
root 6.33487 19.5232 29.9183 -1.63602 52.9009 -9.81496
lowerback 2.07181 1.88032 7.31314
upperback 2.30626 2.61792 3.50156
thorax 1.3832 1.41319 -0.495989
lowerneck -4.16745 16.4974 22.179
upperneck 22.9477 31.1405 -28.3316
head 18.9918 14.3571 -9.21041
rclavicle 5.26779e-014 -1.35174e-014
rhumerus -39.5676 -5.51419 -66.8595
rradius 51.7324
rwrist -14.761
rhand -18.972 19.7706
rfingers 7.12502
rthumb 7.3322 -10.0823
lclavicle 5.26779e-014 -1.35174e-014
lhumerus -49.9362 3.38267 81.6586
lradius 31.8997
lwrist 3.73444
lhand -12.2967 27.4137
lfingers 7.12502
lthumb 13.7711 56.9379
rfemur 3.90294 -2.80081 26.5464
rtibia 13.3006
rfoot -20.9491 -19.3134
rtoes -15.9647
lfemur -43.1664 8.04926 -16.5041
ltibia 40.6776
lfoot 8.828 -3.65987
ltoes -4.80694
287
root 6.43262 19.5046 29.9958 -1.06321 53.5329 -9.21938
lowerback 1.64611 1.73578 6.40522
upperback 2.20104 2.37931 3.51126
thorax 1.45698 1.27928 0.0267687
lowerneck -3.92186 16.552 22.3971
upperneck 22.8105 31.3101 -28.5101
head 19.0551 14.4761 -9.28678
rclavicle -6.97734e-014 5.24792e-014
rhumerus -39.7876 -5.1665 -67.0388
rradius 51.5975
rwrist -15.1116
rhand -18.727 19.6125
rfingers 7.12502
rthumb 7.56867 -10.232
lclavicle -6.97734e-014 5.24792e-014
lhumerus -50.0584 3.72067 81.6947
lradius 32.1351
lwrist 3.42729
lhand -11.3213 26.5194
lfingers 7.12502
lthumb 14.7109 55.9774
rfemur 4.69853 -3.25165 26.125
rtibia 12.5882
rfoot -20.9012 -19.5116
rtoes -16.5813
lfemur -42.5807 7.33404 -16.701
ltibia 38.8418
lfoot 9.57119 -2.58546
ltoes -6.89489
288
root 6.5374 19.4802 30.0622 -1.54191 53.7936 -10.0291
lowerback 1.29525 1.86764 6.91415
upperback 2.03495 2.53412 3.46217
thorax 1.51588 1.36247 -0.294358
lowerneck -4.04072 16.5193 22.5027
upperneck 22.9724 31.2015 -28.2978
head 19.0765 14.4299 -9.24235
rclavicle -2.52457e-014 -3.18055e-015
rhumerus -40.2679 -4.97427 -67.4019
rradius 51.3297
rwrist -15.8033
rhand -19.0084 19.5852
rfingers 7.12502
rthumb 7.29709 -10.2689
lclavicle -2.52457e-014 -3.18055e-015
lhumerus -50.0408 2.97944 81.8904
lradius 32.3125
lwrist 3.4908
lhand -9.32704 25.4391
lfingers 7.12502
lthumb 16.6316 54.7465
rfemur 5.39267 -3.43807 26.5806
rtibia 11.8744
rfoot -20.9427 -19.4801
rtoes -16.9064
lfemur -42.1304 6.914 -15.9771
ltibia 37.1363
lfoot 10.2851 -1.40125
ltoes -7.99931
289
root 6.63877 19.447 30.1308 -2.1711 54.1065 -10.8826
lowerback 0.989227 1.90174 7.18615
upperback 1.95718 2.55576 3.55536
thorax 1.61728 1.37847 -0.337861
lowerneck -4.08038 16.5197 22.5074
upperneck 22.9367 31.1811 -28.2755
head 19.0446 14.4178 -9.22836
rclavicle -1.81888e-014 -5.40694e-014
rhumerus -40.5045 -4.58313 -67.6981
rradius 51.0332
rwrist -16.3183
rhand -19.1887 19.5421
rfingers 7.12502
rthumb 7.12298 -10.318
lclavicle -1.81888e-014 -5.40694e-014
lhumerus -49.9408 2.72561 82.1262
lradius 32.4072
lwrist 3.83596
lhand -8.72689 25.0276
lfingers 7.12502
lthumb 17.2093 54.2856
rfemur 6.40499 -3.34468 27.1338
rtibia 10.7703
rfoot -20.9376 -19.6854
rtoes -16.6274
lfemur -41.6881 6.74773 -15.3692
ltibia 35.6364
lfoot 10.8709 -0.571096
ltoes -9.52616
290
root 6.73973 19.4122 30.2053 -2.44829 54.4109 -11.2
lowerback 0.709582 1.79333 6.7191
upperback 1.9111 2.38782 3.80181
thorax 1.68532 1.28817 0.180138
lowerneck -3.75044 16.5725 22.5058
upperneck 22.5921 31.3642 -28.5959
head 18.9567 14.529 -9.31314
rclavicle 3.60794e-014 -2.70347e-014
rhumerus -40.6004 -3.98517 -67.852
rradius 50.864
rwrist -16.5589
rhand -19.1266 19.4077
rfingers 7.12502
rthumb 7.18291 -10.4504
lclavicle 3.60794e-014 -2.70347e-014
lhumerus -50.0161 3.44324 82.1972
lradius 32.5872
lwrist 3.91476
lhand -5.55678 22.2955
lfingers 7.12502
lthumb 20.2584 51.259
rfemur 7.71084 -3.58943 27.3142
rtibia 9.30094
rfoot -20.9158 -19.4428
rtoes -15.8275
lfemur -41.1665 6.56227 -15.094
ltibia 34.2795
lfoot 11.249 0.172543
ltoes -11.7716
291
root 6.85499 19.3742 30.2593 -3.08795 54.762 -11.9228
lowerback 0.60426 1.767 7.11871
upperback 1.79396 2.35047 3.82983
thorax 1.63779 1.27266 -0.0107402
lowerneck -3.64996 16.5677 22.6291
upperneck 22.4738 31.3834 -28.698
head 18.9436 14.5608 -9.37576
rclavicle 4.00551e-014 -1.66979e-014
rhumerus -40.9935 -4.10078 -68.0809
rradius 50.7483
rwrist -16.5696
rhand -18.9132 19.2616
rfingers 7.12502
rthumb 7.38894 -10.5894
lclavicle 4.00551e-014 -1.66979e-014
lhumerus -50.1614 3.4052 82.2657
lradius 32.9425
lwrist 4.27328
lhand -11.3556 27.0779
lfingers 7.12502
lthumb 14.6779 56.5384
rfemur 9.17464 -3.87714 27.5782
rtibia 7.58368
rfoot -20.6894 -19.2998
rtoes -15.7814
lfemur -40.6442 6.14472 -14.5956
ltibia 33.0841
lfoot 11.5411 1.02054
ltoes -13.8244
292
root 6.97117 19.3412 30.3305 -2.84566 55.1614 -11.7352
lowerback 0.23704 1.78963 6.85059
upperback 1.67836 2.34975 3.69266
thorax 1.71876 1.26762 0.0060516
lowerneck -3.75651 16.5584 22.7367
upperneck 22.4978 31.3463 -28.6608
head 18.9854 14.5447 -9.38242
rclavicle 4.67144e-015 2.38542e-014
rhumerus -41.4073 -4.35074 -68.381
rradius 50.5866
rwrist -16.5486
rhand -18.7689 19.1569
rfingers 7.12502
rthumb 7.52822 -10.6891
lclavicle 4.67144e-015 2.38542e-014
lhumerus -50.2918 1.89763 83.0984
lradius 33.4695
lwrist 6.0239
lhand -8.80079 26.2827
lfingers 7.12502
lthumb 17.1382 55.5469
rfemur 10.7985 -4.16268 27.3089
rtibia 5.35651
rfoot -19.6738 -19.3954
rtoes -17.3784
lfemur -40.2595 5.89037 -14.7979
ltibia 31.9937
lfoot 11.9094 1.69725
ltoes -16.058
293
root 7.09005 19.2986 30.3897 -3.72391 55.4454 -12.793
lowerback 0.0248468 1.82249 7.50966
upperback 1.56717 2.37617 3.69437
thorax 1.75332 1.28964 -0.349102
lowerneck -3.72434 16.6041 22.8079
upperneck 22.4925 31.377 -28.5463
head 18.951 14.5646 -9.32003
rclavicle -4.96962e-015 -3.02153e-014
rhumerus -41.8063 -4.29366 -68.7637
rradius 50.3311
rwrist -16.7609
rhand -18.8683 19.152
rfingers 7.12502
rthumb 7.43232 -10.6975
lclavicle -4.96962e-015 -3.02153e-014
lhumerus -50.375 1.24639 83.3473
lradius 33.8777
lwrist 6.78801
lhand -7.18717 25.8859
lfingers 7.12502
lthumb 18.6908 55.0079
rfemur 13.7188 -4.38202 27.7768
rtibia 0.767216
rfoot -15.7936 -19.8444
rtoes -22.7546
lfemur -39.899 5.75688 -14.2629
ltibia 31.0624
lfoot 12.3274 2.35546
ltoes -18.4085
